<?xml version="1.0" standalone="no"?>
<!DOCTYPE svg PUBLIC "-//W3C//DTD SVG 20010904//EN"
 "http://www.w3.org/TR/2001/REC-SVG-20010904/DTD/svg10.dtd">
<svg version="1.0" xmlns="http://www.w3.org/2000/svg"
 width="1024.000000pt" height="1024.000000pt" viewBox="0 0 1024.000000 1024.000000"
 preserveAspectRatio="xMidYMid meet">

<g transform="translate(0.000000,1024.000000) scale(0.100000,-0.100000)"
fill="#000000" stroke="none">
<path d="M0 8200 l0 -50 2109 0 2110 0 28 -24 28 -24 3 -1819 2 -1818 -101
-118 -100 -117 -1405 0 -1405 0 7 38 c9 54 29 80 79 104 43 21 46 21 104 5 79
-22 128 -21 175 2 l38 20 41 -44 c49 -50 99 -64 162 -43 63 20 92 101 61 169
-5 12 2 18 31 27 31 9 51 28 103 98 73 97 102 124 136 124 15 0 25 8 29 23 4
12 34 65 66 118 32 53 59 103 59 112 0 8 12 24 27 35 37 27 65 163 51 243 -20
111 -93 195 -195 225 -73 21 -156 10 -316 -42 -61 -19 -115 -34 -122 -32 -8 2
10 41 51 108 l64 105 103 7 c188 12 305 57 399 155 60 61 154 197 191 274 l22
46 78 7 c43 4 101 15 130 26 92 35 132 131 92 226 -8 19 -40 76 -71 127 -73
117 -98 174 -168 377 -32 91 -73 194 -92 230 -41 75 -110 151 -172 187 -45 27
-132 57 -132 45 0 -4 25 -38 56 -77 90 -113 130 -175 179 -286 l47 -104 2
-250 c1 -137 -2 -276 -6 -308 -11 -77 -55 -215 -81 -251 -20 -28 -21 -29 -100
-23 -86 6 -151 36 -189 88 -18 24 -18 31 -7 87 13 62 13 62 49 63 106 4 130
34 130 163 0 98 -24 156 -74 180 -54 26 -237 57 -282 48 -27 -5 -74 -48 -74
-68 0 -7 13 -28 29 -46 23 -27 29 -45 35 -106 10 -110 42 -168 104 -187 27 -8
24 -26 -14 -92 -30 -53 -85 -98 -143 -118 -95 -32 -177 -11 -241 64 -33 39
-43 44 -57 35 -33 -20 -28 -68 12 -112 98 -109 301 -115 416 -14 l42 38 29
-27 c42 -40 108 -69 188 -82 l72 -12 -43 -48 c-23 -27 -59 -60 -80 -73 -51
-32 -169 -71 -243 -79 -73 -9 -359 13 -405 31 -44 18 -48 18 -61 -6 -8 -15 -8
-30 1 -54 11 -32 15 -34 72 -40 33 -3 80 -6 103 -6 24 0 44 -2 44 -4 0 -1 -19
-32 -42 -68 -24 -35 -65 -101 -93 -146 -27 -45 -53 -82 -57 -82 -4 0 -27 27
-52 59 -48 63 -114 103 -188 116 -53 10 -105 -18 -141 -76 -27 -44 -31 -47
-56 -38 -108 41 -326 193 -410 286 -34 37 -61 70 -61 73 0 3 36 32 81 65 146
107 249 238 269 344 13 70 13 383 -1 586 -9 136 -8 171 5 235 19 92 70 197
131 270 25 30 45 58 45 62 0 12 99 57 183 82 90 28 217 46 313 46 105 0 125
24 53 61 -38 19 -54 21 -168 17 -99 -4 -146 -11 -216 -32 -123 -36 -336 -142
-423 -211 -86 -67 -211 -212 -346 -401 -55 -77 -129 -179 -166 -229 -86 -116
-94 -136 -88 -238 4 -76 8 -88 42 -140 49 -73 99 -97 275 -132 133 -27 201
-50 201 -68 0 -37 -117 -136 -255 -215 -66 -38 -130 -95 -362 -320 l-283 -274
0 -70 0 -71 173 169 c95 93 230 220 300 282 70 63 127 118 127 123 0 5 44 -33
98 -85 110 -108 234 -206 307 -245 l50 -26 -125 -3 c-68 -1 -128 -6 -133 -11
-5 -5 -3 -27 3 -50 8 -30 18 -45 36 -51 14 -6 88 -10 164 -10 149 0 274 18
351 52 39 16 53 18 87 9 22 -6 50 -19 61 -29 20 -16 20 -20 8 -67 -15 -54 -33
-92 -109 -232 l-51 -91 -51 -7 c-31 -4 -103 -31 -186 -70 -146 -69 -265 -105
-344 -105 -111 0 -245 56 -303 126 -21 24 -43 44 -49 44 -22 0 -53 -48 -46
-72 9 -36 101 -116 167 -147 90 -43 157 -54 281 -48 115 5 170 20 287 76 60
29 68 30 224 33 l161 3 23 29 c18 23 94 66 116 66 5 0 -1 -31 -13 -72 -5 -16
4 -18 90 -18 53 0 96 -4 96 -8 0 -5 -19 -31 -43 -59 -23 -27 -56 -67 -73 -88
l-30 -39 -195 -6 c-174 -5 -198 -8 -236 -28 -22 -12 -51 -34 -63 -49 -20 -25
-22 -37 -18 -120 l4 -93 -573 0 -573 0 0 -50 0 -50 1963 -2 1962 -3 -71 -75
c-39 -41 -133 -145 -208 -230 -76 -85 -149 -163 -164 -172 -25 -17 -128 -18
-1754 -18 l-1728 0 0 -45 0 -45 406 0 407 0 -7 -32 c-14 -70 -146 -320 -307
-583 -18 -30 -18 -31 1 -63 26 -42 57 -48 156 -29 88 17 102 16 147 -17 35
-26 50 -80 41 -159 -8 -79 -25 -140 -85 -304 -28 -77 -49 -150 -49 -173 l0
-40 -134 0 -134 0 -7 148 c-3 81 -11 173 -16 206 -20 115 -118 376 -152 404
-20 17 -77 12 -89 -8 -7 -11 4 -45 40 -120 63 -134 64 -136 46 -150 -8 -7 -14
-18 -14 -25 0 -6 -13 -30 -29 -52 -35 -48 -116 -91 -178 -95 l-43 -3 0 -54 0
-53 59 4 c67 5 165 50 217 100 l31 29 7 -33 c3 -18 9 -91 13 -164 l6 -131 -59
-12 c-41 -8 -87 -30 -149 -69 -118 -75 -125 -89 -125 -244 0 -116 0 -118 30
-151 16 -19 42 -40 57 -46 21 -8 413 -11 1479 -9 l1451 3 48 30 c58 36 81 72
96 150 22 120 -25 241 -119 309 l-44 31 -639 3 -639 2 0 700 0 700 883 0 884
0 40 28 c22 15 80 70 129 123 120 129 354 388 381 422 16 20 30 27 57 27 20 0
36 4 36 9 0 5 43 56 95 113 53 56 102 115 110 130 23 41 24 3722 2 3764 -21
40 -58 73 -95 83 -18 6 -922 10 -2137 11 l-2105 1 0 -51z m970 -1052 c-24 -62
-24 -389 -1 -591 15 -130 19 -205 15 -278 -4 -54 -8 -99 -9 -99 -1 0 -28 13
-61 29 -32 16 -117 44 -189 62 -205 51 -221 62 -244 164 -15 66 -21 53 112
217 37 45 109 144 159 218 51 74 106 154 123 176 16 23 46 64 65 92 39 56 48
59 30 10z m1832 -791 c16 -31 28 -65 26 -74 -5 -27 -50 -51 -107 -58 l-54 -7
6 38 c4 22 7 100 7 174 l0 134 46 -74 c26 -41 60 -101 76 -133z m-531 -1022
c39 -37 68 -99 69 -146 0 -27 -11 -49 -45 -93 -50 -65 -52 -71 -28 -84 14 -9
14 -11 -5 -21 -30 -16 -205 -226 -330 -395 -13 -17 -39 -60 -59 -96 -20 -36
-38 -67 -39 -69 -7 -8 -34 22 -34 36 0 18 81 140 195 293 250 336 265 359 265
397 0 12 -8 29 -17 38 -23 23 -114 16 -144 -11 -41 -36 -99 -136 -99 -170 0
-18 -3 -35 -8 -38 -4 -2 -68 -7 -142 -11 -128 -6 -297 -27 -335 -41 -10 -4
-16 -3 -13 2 2 5 25 52 50 104 26 52 52 120 59 151 l13 57 71 11 c38 7 142 37
230 67 148 51 166 55 237 52 69 -3 80 -6 109 -33z m-391 -500 c0 -12 -63 -105
-70 -105 -7 0 -40 89 -40 107 0 2 25 3 55 3 30 0 55 -2 55 -5z m-256 -1323 c0
-12 -1 -326 -2 -697 l-2 -675 -150 0 c-82 0 -150 1 -150 3 0 1 9 29 19 62 57
180 67 494 21 655 -68 240 -192 365 -415 420 -49 12 -91 23 -93 25 -5 5 81
220 91 226 5 4 161 6 346 5 l336 -2 -1 -22z m-731 -338 c216 -48 332 -168 370
-384 39 -212 31 -340 -33 -527 l-39 -118 -192 -3 c-151 -2 -190 0 -187 10 25
68 101 321 114 379 21 102 21 243 -1 294 -46 107 -95 140 -201 133 l-72 -5 22
36 c12 20 40 73 62 118 45 94 42 93 157 67z m1990 -1130 c79 -7 121 -31 155
-89 19 -34 22 -51 19 -110 -4 -77 -22 -115 -63 -133 -18 -9 -390 -12 -1434
-12 l-1409 0 -26 23 c-44 38 -53 130 -19 198 9 19 73 85 106 111 13 10 2575
21 2671 12z"/>
<path d="M278 7393 c-16 -16 -52 -37 -80 -48 -29 -10 -86 -33 -125 -52 l-73
-34 0 -44 0 -44 32 14 c18 8 69 32 113 54 85 44 119 50 129 25 3 -9 6 -270 6
-580 0 -616 -3 -584 56 -570 l26 7 -7 584 c-7 571 -7 585 11 585 29 0 61 26
66 55 8 41 -20 67 -78 72 -44 4 -52 2 -76 -24z"/>
<path d="M6122 7199 c-73 -14 -158 -81 -184 -148 -11 -29 -24 -3310 -13 -3418
8 -79 39 -127 164 -253 78 -78 99 -94 121 -92 23 3 57 -27 246 -216 120 -121
235 -228 254 -238 31 -17 57 -19 250 -17 118 1 441 -1 718 -4 l502 -5 -2 -357
-3 -356 -414 -2 c-473 -3 -461 -1 -545 -94 -58 -65 -79 -126 -74 -224 l3 -75
-342 0 -343 0 -4 22 c-59 287 -175 992 -202 1218 l-6 56 43 9 c55 13 87 53 73
92 l-9 27 -320 -3 c-282 -2 -321 -4 -332 -19 -35 -45 9 -102 78 -102 27 0 39
-4 39 -14 0 -19 -161 -815 -211 -1043 -28 -128 -40 -199 -35 -219 4 -15 27
-47 50 -71 l43 -43 2287 0 2286 0 0 299 c0 271 -7 352 -24 288 -3 -12 -6 -72
-6 -134 0 -108 -1 -112 -22 -115 -16 -2 -24 -12 -30 -38 -7 -33 -6 -56 8 -165
l5 -45 -275 0 c-152 0 -276 4 -276 8 0 23 34 119 48 135 10 12 31 17 66 18 66
1 102 12 99 30 -1 8 -12 41 -23 73 -88 247 133 624 393 670 l37 7 0 74 c0 60
-3 76 -17 84 -17 10 -17 10 0 11 14 0 17 9 17 49 l0 49 -122 7 c-68 3 -715 4
-1438 2 -723 -3 -1452 -2 -1620 1 l-305 5 -183 181 c-101 99 -187 188 -192
196 -7 13 209 15 1926 12 l1934 -3 0 46 0 45 -1982 0 c-1091 1 -2003 5 -2028
9 -38 8 -55 19 -108 77 -114 125 -102 -94 -102 1827 0 1412 2 1683 14 1711 14
33 62 76 99 90 11 3 939 6 2063 6 l2044 1 0 45 0 45 -2037 -2 c-1121 -1 -2057
-6 -2081 -10z m22 -4211 c3 -13 10 -63 16 -113 6 -49 28 -196 50 -325 22 -129
55 -338 75 -465 20 -126 42 -258 50 -293 8 -35 15 -70 15 -78 0 -12 -48 -14
-319 -14 l-320 0 -20 26 c-23 29 -27 54 -11 70 9 9 22 68 79 374 28 148 66
332 90 440 10 47 32 156 47 243 l29 157 107 0 c104 0 108 -1 112 -22z m2416
-184 c0 -4 -9 -21 -19 -38 -60 -96 -98 -265 -113 -493 l-12 -183 -68 0 -68 0
0 293 c0 160 3 322 7 360 l6 67 133 0 c74 0 134 -3 134 -6z m709 0 c53 -11 34
-21 -46 -26 -90 -5 -150 -32 -225 -97 -100 -89 -164 -267 -184 -513 l-6 -78
-139 0 -139 0 0 113 c0 193 55 434 123 542 17 28 36 53 42 57 12 9 530 11 574
2z m681 -14 c0 -6 -92 -10 -255 -10 -163 0 -255 4 -255 10 0 6 92 10 255 10
163 0 255 -4 255 -10z m24 -124 c-102 -45 -225 -219 -270 -381 -20 -77 -30
-253 -16 -294 10 -28 9 -31 -9 -31 -78 0 -159 -116 -159 -227 l0 -45 -31 6
c-17 3 -44 6 -60 6 l-29 0 0 88 c0 122 -18 176 -77 234 -26 26 -61 52 -76 57
-16 6 -96 11 -179 11 l-151 0 7 96 c21 277 129 462 286 485 25 3 214 7 420 7
322 1 371 -1 344 -12z m-748 -691 c56 -43 77 -87 75 -162 -1 -36 -4 -76 -7
-89 l-6 -24 -1018 0 -1018 0 -6 23 c-12 47 -6 121 15 164 19 39 74 92 109 106
8 3 422 6 919 6 l904 1 33 -25z"/>
<path d="M2991 7071 c-28 -28 -26 -62 5 -96 23 -25 30 -27 79 -22 l53 5 4
-1108 c1 -610 7 -1112 11 -1117 5 -4 125 -9 267 -11 l258 -3 -1 198 c-1 109
-1 610 1 1114 l2 917 43 -5 c55 -6 88 18 89 65 1 18 -4 38 -11 45 -9 9 -111
13 -374 17 -199 3 -372 9 -384 14 -15 6 -27 2 -42 -13z m579 -750 l0 -629 -22
-6 c-13 -3 -89 -6 -170 -6 l-148 0 -2 368 c-2 202 -2 487 0 635 l2 267 170 0
170 0 0 -629z"/>
<path d="M1574 6957 c-65 -59 -55 -165 19 -204 42 -22 117 -22 150 0 59 38 60
146 2 204 -29 29 -40 33 -84 33 -44 0 -56 -5 -87 -33z"/>
<path d="M2353 6969 c-20 -12 -34 -31 -37 -50 -3 -16 -8 -41 -11 -56 -4 -18 3
-44 17 -73 19 -36 30 -47 59 -54 52 -13 85 -1 114 41 19 28 25 51 25 88 0 57
-17 88 -60 110 -39 20 -69 19 -107 -6z"/>
<path d="M8740 6659 c-70 -29 -100 -84 -100 -184 0 -62 -5 -89 -30 -147 -17
-39 -46 -121 -64 -182 -55 -178 -80 -240 -97 -244 -24 -5 -140 98 -198 175
-55 74 -107 172 -117 221 -5 26 -2 32 22 43 34 17 74 89 74 136 0 89 -137 130
-206 61 -47 -46 -41 -168 7 -187 16 -5 26 -23 36 -62 36 -143 138 -296 263
-398 44 -35 45 -37 46 -97 l1 -62 -131 -32 c-100 -25 -151 -32 -213 -31 -47 1
-99 -5 -122 -13 l-40 -13 -64 66 c-34 36 -76 83 -92 104 -28 38 -28 39 -12 73
10 19 17 58 17 86 0 45 -4 54 -39 89 -36 36 -43 39 -95 39 -59 0 -83 -9 -128
-49 -33 -29 -63 -111 -53 -148 22 -88 125 -134 218 -98 12 5 17 2 17 -10 0 -9
41 -56 90 -104 l90 -87 -20 -46 -20 -45 -87 -16 c-49 -9 -113 -19 -144 -22
-56 -7 -56 -7 -63 22 -12 46 -34 61 -115 79 -94 21 -179 62 -216 106 -49 57
-63 99 -129 382 l-16 68 25 20 c39 31 68 95 61 136 -12 79 -94 152 -168 152
-39 0 -106 -29 -130 -56 -10 -11 -24 -36 -33 -57 -46 -110 22 -217 138 -217
26 0 47 -3 47 -7 1 -65 70 -324 106 -395 53 -105 135 -168 252 -194 42 -9 82
-23 90 -30 7 -8 12 -14 10 -14 -3 0 -29 -4 -59 -10 -88 -15 -283 -25 -441 -21
-82 1 -148 -1 -149 -6 0 -4 -3 -27 -5 -50 -4 -34 -2 -43 10 -43 14 0 16 -63
16 -578 0 -319 -3 -640 -7 -716 l-6 -137 -309 3 -308 3 0 -47 0 -47 1633 0
1632 0 82 28 c136 47 331 178 362 242 13 26 25 34 68 45 86 22 243 113 257
149 7 20 -18 76 -44 100 -17 15 -19 14 -41 -24 -24 -44 -111 -96 -204 -124
-283 -83 -731 -12 -1133 178 l-113 54 49 78 c80 129 78 125 66 130 -7 2 -68
40 -135 85 -68 45 -139 86 -157 91 -29 9 -35 8 -62 -18 -16 -16 -31 -27 -33
-24 -51 63 -49 90 8 124 26 14 51 23 58 19 6 -5 62 -40 122 -79 61 -39 139
-86 175 -104 36 -18 81 -41 101 -52 80 -43 397 -96 556 -94 64 1 297 28 382
45 29 5 78 10 107 10 42 0 58 5 74 22 29 31 25 60 -15 96 -23 21 -36 44 -40
69 -11 64 -11 64 -62 61 -52 -3 -52 -3 -38 -80 l7 -37 -58 -17 c-36 -11 -95
-18 -149 -18 -84 -1 -94 1 -153 33 -34 19 -74 45 -88 58 -17 16 -45 26 -87 33
-172 25 -415 148 -501 253 -20 24 -36 47 -36 50 0 4 15 6 33 5 67 -2 102 32
140 136 11 32 22 42 51 53 90 31 164 128 153 200 -3 19 -13 46 -22 60 -22 34
-90 63 -147 63 -32 0 -48 4 -48 13 0 21 87 205 129 276 22 36 57 84 77 106 20
22 41 47 47 56 22 29 148 119 218 154 77 39 195 74 284 85 71 8 318 -5 375
-20 22 -6 40 -15 40 -21 0 -13 -135 -141 -254 -241 -55 -46 -108 -95 -120
-111 l-20 -27 22 -84 c13 -50 26 -143 32 -232 12 -172 19 -199 61 -242 56 -58
99 -54 349 32 l95 32 3 62 3 61 -38 -16 c-21 -8 -65 -24 -98 -33 -33 -10 -91
-29 -129 -44 -84 -32 -91 -32 -122 -1 -24 24 -25 30 -19 88 4 44 0 97 -16 182
-12 66 -23 131 -26 145 -4 21 7 34 73 85 42 33 131 113 196 178 108 108 121
118 136 105 39 -34 42 -32 42 35 0 72 6 65 -112 112 -159 64 -466 74 -643 21
-146 -44 -257 -105 -366 -202 -27 -24 -54 -44 -58 -44 -16 0 -101 89 -101 104
0 8 12 32 26 53 22 33 25 46 22 96 -5 66 -42 129 -96 160 -38 22 -136 32 -172
16z m-2 -340 c20 -15 38 -20 76 -18 50 3 50 3 96 -55 26 -31 57 -64 68 -72 21
-14 21 -15 -34 -99 -61 -94 -127 -228 -150 -305 l-15 -50 -59 0 -59 0 5 28 c8
40 -13 110 -41 138 -15 14 -36 24 -53 24 l-30 0 18 53 c10 28 33 99 51 156 30
98 84 221 96 221 3 0 17 -9 31 -21z m-151 -490 c19 -16 17 -89 -4 -111 -25
-28 -70 -23 -104 11 -37 38 -37 63 3 96 33 28 74 29 105 4z m55 -169 c-6 -39
3 -71 26 -98 31 -35 44 -31 57 18 14 57 38 70 132 70 79 0 116 -11 151 -42 59
-57 -5 -124 -168 -174 -71 -22 -88 -19 -112 22 -19 33 -24 36 -56 31 -52 -9
-78 -31 -96 -83 -31 -92 -20 -141 50 -211 25 -26 60 -67 77 -91 72 -100 311
-251 471 -297 32 -9 56 -18 53 -21 -7 -7 -231 59 -307 91 -72 30 -159 76 -267
142 -163 98 -250 123 -312 89 -13 -7 -61 -54 -106 -104 -68 -75 -85 -102 -103
-157 -12 -36 -22 -75 -22 -88 0 -77 202 -248 425 -359 109 -54 275 -127 325
-141 41 -12 45 -16 43 -43 -1 -16 -5 -88 -9 -160 l-7 -131 -96 -7 c-53 -3
-423 -6 -822 -6 l-726 0 -7 74 c-4 40 -6 370 -6 734 l1 660 87 7 c48 4 103 14
122 22 22 9 76 16 145 18 61 1 133 9 160 16 l50 14 20 -35 c25 -42 57 -60 111
-60 54 0 102 21 139 60 26 27 30 39 30 85 0 37 -5 59 -18 73 -19 20 -18 21 30
27 66 9 156 32 230 57 l63 22 22 -21 c37 -32 79 -43 120 -28 27 9 95 45 104
54 0 1 -1 -12 -4 -29z m-651 -109 c29 -30 34 -46 23 -76 -7 -18 -54 -45 -79
-45 -24 0 -55 37 -55 66 0 26 48 84 70 84 6 0 25 -13 41 -29z m-831 -908 l0
-728 -147 2 -148 2 0 720 0 720 80 4 c44 1 110 4 148 5 l67 2 0 -727z m1504
631 c4 -11 1 -14 -11 -12 -9 2 -18 9 -21 16 -6 18 25 15 32 -4z m520 -1128
c134 -27 329 -56 379 -56 60 0 60 -18 1 -71 -43 -39 -69 -53 -139 -74 -95 -29
-232 -47 -344 -44 l-73 2 6 41 c3 23 9 83 12 134 6 71 10 92 22 92 8 0 69 -11
136 -24z"/>
<path d="M7422 6583 c-33 -26 -40 -90 -14 -123 16 -20 29 -24 63 -24 110 3
122 146 14 161 -30 4 -46 0 -63 -14z"/>
<path d="M6491 6566 c-27 -15 -50 -51 -51 -79 0 -30 54 -77 90 -77 35 0 90 46
90 75 0 29 -29 73 -52 80 -48 14 -54 14 -77 1z"/>
<path d="M6313 6154 c-43 -21 -72 -71 -80 -133 -6 -49 -4 -52 34 -91 38 -37
45 -40 96 -40 l55 0 12 -87 c6 -49 18 -123 26 -167 8 -43 14 -82 14 -87 0 -5
-20 -9 -44 -9 -80 0 -126 -61 -126 -170 0 -122 125 -187 241 -127 108 56 122
244 22 286 -29 12 -29 13 -48 154 -10 78 -24 162 -32 186 -13 40 -13 45 1 53
24 13 46 62 46 102 0 110 -117 179 -217 130z m125 -128 c2 -15 -2 -34 -9 -42
-13 -16 -55 -19 -64 -3 -12 18 5 60 28 69 31 12 42 7 45 -24z m70 -562 c37
-25 44 -49 28 -88 -26 -61 -76 -73 -120 -27 -32 33 -30 53 11 101 28 34 48 37
81 14z"/>
<path d="M0 6000 l0 -40 168 2 167 3 0 24 c0 37 -49 49 -202 50 l-133 1 0 -40z"/>
<path d="M389 6025 c-30 -16 -44 -44 -31 -57 5 -5 27 -12 49 -15 35 -5 43 -2
62 22 20 26 20 29 5 47 -20 21 -49 23 -85 3z"/>
<path d="M9297 5810 c-38 -30 -57 -71 -57 -122 0 -86 55 -138 146 -138 45 0
59 5 86 29 29 26 33 35 36 99 4 68 3 71 -30 108 -32 34 -41 38 -94 42 -49 3
-63 0 -87 -18z"/>
<path d="M3598 2808 c-23 -23 -23 -40 0 -68 16 -19 27 -23 77 -21 l58 1 -6
-43 c-3 -23 -17 -80 -31 -127 -14 -47 -51 -177 -82 -290 -31 -113 -80 -287
-110 -387 -30 -100 -54 -188 -54 -197 0 -8 12 -27 28 -41 l27 -27 654 1 c720
2 692 -1 731 64 26 42 25 87 -5 172 -33 93 -177 582 -229 782 l-24 92 61 3
c56 3 63 6 74 30 16 32 8 57 -21 63 -11 3 -271 6 -576 8 -517 2 -556 1 -572
-15z m471 -190 c7 -57 24 -166 37 -243 13 -77 38 -230 54 -340 17 -110 39
-230 49 -267 l18 -68 -330 0 -329 0 6 23 c4 12 40 150 80 307 41 157 99 370
130 473 31 103 56 195 56 202 0 12 20 15 108 15 l108 0 13 -102z m167 85 c-3
-10 -8 -36 -12 -58 -12 -70 -20 -73 -38 -12 -9 31 -19 63 -22 72 -5 12 2 15
36 15 35 0 41 -3 36 -17z m322 -110 c44 -174 96 -364 139 -508 19 -66 38 -128
40 -137 5 -16 -4 -18 -96 -18 -112 0 -112 0 -86 63 50 120 -42 241 -122 161
-23 -24 -25 -31 -20 -83 4 -32 15 -79 26 -104 l20 -47 -79 0 c-66 0 -80 3 -84
18 -10 30 -44 213 -61 322 -8 58 -20 125 -25 150 -13 64 -13 64 19 77 22 8 37
28 66 87 20 41 39 91 42 111 l6 35 91 0 91 0 33 -127z m217 -780 c4 -16 13
-43 21 -62 8 -19 11 -37 7 -42 -4 -4 -107 -9 -228 -11 l-220 -3 -17 35 c-10
19 -18 49 -18 67 l0 32 78 4 c42 1 143 4 224 5 l148 2 5 -27z"/>
<path d="M27 103 c-25 -4 -27 -8 -27 -54 0 -48 1 -49 30 -49 30 0 30 1 30 55
0 30 -1 54 -2 54 -2 -1 -15 -4 -31 -6z"/>
</g>
</svg>
